<svg width="16" height="16" viewBox="0 0 16 16" fill="none" xmlns="http://www.w3.org/2000/svg">
<path fill-rule="evenodd" clip-rule="evenodd" d="M4.64601 14.354C4.59944 14.3075 4.5625 14.2524 4.53729 14.1916C4.51209 14.1309 4.49911 14.0658 4.49911 14C4.49911 13.9342 4.51209 13.8691 4.53729 13.8084C4.5625 13.7476 4.59944 13.6924 4.64601 13.646L10.293 7.99999L4.64601 2.35399C4.55212 2.2601 4.49938 2.13277 4.49938 1.99999C4.49938 1.86722 4.55212 1.73988 4.64601 1.64599C4.73989 1.5521 4.86723 1.49936 5.00001 1.49936C5.13278 1.49936 5.26012 1.5521 5.35401 1.64599L11.354 7.64599C11.4006 7.69244 11.4375 7.74761 11.4627 7.80836C11.4879 7.8691 11.5009 7.93422 11.5009 7.99999C11.5009 8.06576 11.4879 8.13088 11.4627 8.19162C11.4375 8.25237 11.4006 8.30755 11.354 8.35399L5.35401 14.354C5.30756 14.4006 5.25239 14.4375 5.19164 14.4627C5.13089 14.4879 5.06577 14.5009 5.00001 14.5009C4.93424 14.5009 4.86912 14.4879 4.80837 14.4627C4.74763 14.4375 4.69245 14.4006 4.64601 14.354V14.354Z" fill="black"/>
</svg>
